<svg width="30" height="33" viewBox="0 0 30 33" fill="none" xmlns="http://www.w3.org/2000/svg">
<path d="M29.7039 30.7509L21.8224 22.3064C23.8128 19.6849 24.7885 16.345 24.5483 12.9754C24.3081 9.60587 22.8704 6.46348 20.5316 4.19616C18.1927 1.92884 15.1311 0.709448 11.9779 0.789403C8.82466 0.869358 5.82028 2.24256 3.58417 4.62589C1.35973 7.02172 0.078076 10.2407 0.00345092 13.6191C-0.0711742 16.9976 1.06692 20.2779 3.18309 22.7838C5.29925 25.2897 8.23215 26.8301 11.3771 27.0875C14.522 27.3448 17.6392 26.2994 20.086 24.1669L27.9675 32.6113C28.2031 32.8275 28.5061 32.9404 28.8161 32.9276C29.126 32.9148 29.42 32.7771 29.6393 32.5421C29.8586 32.3071 29.9871 31.9921 29.9991 31.66C30.0111 31.328 29.9056 31.0033 29.7039 30.7509ZM5.32056 21.4224C3.94211 19.9465 3.00317 18.0657 2.62251 16.0179C2.24185 13.9701 2.43657 11.8474 3.18205 9.91823C3.92752 7.98905 5.19025 6.34009 6.81052 5.17992C8.43079 4.01976 10.3358 3.40051 12.2846 3.40051C14.2334 3.40051 16.1384 4.01976 17.7586 5.17992C19.3789 6.34009 20.6416 7.98905 21.3871 9.91823C22.1326 11.8474 22.3273 13.9701 21.9467 16.0179C21.566 18.0657 20.6271 19.9465 19.2486 21.4224C18.338 22.4098 17.2536 23.1937 16.0582 23.7287C14.8628 24.2637 13.5801 24.5392 12.2846 24.5392C10.9891 24.5392 9.70642 24.2637 8.51099 23.7287C7.31557 23.1937 6.23114 22.4098 5.32056 21.4224Z" fill="black"/>
</svg>
